<svg width="100.00000000000001" height="100.00000000000001" xmlns="http://www.w3.org/2000/svg">

 <g>
  <title>background</title>
  <rect fill="#ffffff" id="canvas_background" height="102" width="102" y="-1" x="-1"/>
 </g>
 <g>
  <title>Layer 1</title>
  <path id="svg_7" fill="#231F20" d="m61,55.526l0,-10.526l-2.269,0l17.367,-42l-16,0l-13.1,32.154l-13.1,-32.154l-16,0l17.366,42l-2.264,0l0,10.523c-6.051,4.362 -10.002,11.465 -10.002,19.477c0,13.233 10.766,24 24,24s24,-10.767 24,-24c0,-8.011 -3.949,-15.112 -9.998,-19.474zm-26,-8.526l1.131,0l0.867,2l4,0l12,0l4,0l0.867,-2l1.135,0l0,7.229c-3.533,-2.049 -7.631,-3.229 -12.002,-3.229c-4.369,0 -8.465,1.18 -11.998,3.228l0,-7.228zm11.998,48c-11.027,0 -20,-8.972 -20,-20s8.973,-20 20,-20s20,8.972 20,20s-8.973,20 -20,20z"/>
  <path id="svg_8" fill="#231F20" d="m46.998,58c-9.374,0 -17,7.626 -17,17s7.626,17 17,17s17,-7.626 17,-17s-7.626,-17 -17,-17zm0,32c-8.271,0 -15,-6.729 -15,-15s6.729,-15 15,-15s15,6.729 15,15s-6.728,15 -15,15z"/>
  <polygon id="svg_9" points="49.529,70.818 46.748,65.185 43.967,70.818 37.748,71.724 42.248,76.109 41.187,82.303    46.748,79.379 52.31,82.303 51.248,76.109 55.748,71.724  " fill="#231F20"/>
 </g>
</svg>